<svg width="24" height="25" viewBox="0 0 24 25" fill="none" xmlns="http://www.w3.org/2000/svg">
<g opacity="0.4">
<path d="M15 20.38C15.04 20.68 14.94 21 14.71 21.21C14.32 21.6 13.69 21.6 13.3 21.21L9.28999 17.2C9.05999 16.97 8.95999 16.66 8.99999 16.37V11.25L4.21 5.12C3.87 4.69 3.95 4.06 4.38 3.72C4.57 3.58 4.77999 3.5 4.99999 3.5H19C19.22 3.5 19.43 3.58 19.62 3.72C20.05 4.06 20.13 4.69 19.79 5.12L15 11.25V20.38ZM7.03999 5.5L11 10.56V16.08L13 18.08V10.55L16.96 5.5H7.03999Z" fill="black"/>
</g>
</svg>
